<svg width="216" height="146" viewBox="0 0 216 146" fill="none" xmlns="http://www.w3.org/2000/svg">
<rect x="0.5" y="0.5" width="215" height="145" rx="15.5" fill="black"/>
<rect x="0.5" y="0.5" width="215" height="145" rx="15.5" stroke="white"/>
<mask id="path-2-outside-1_0_5" maskUnits="userSpaceOnUse" x="23" y="14" width="169" height="51" fill="black">
<rect fill="white" x="23" y="14" width="169" height="51"/>
<path d="M30.0312 38.5508H24.9531V33.9609H30.0312V38.5508ZM30.0312 64H24.9531V42.8867H30.0312V64ZM58.3125 64H53.2344V52.2812C53.2344 51.6172 53.1172 51.0247 52.8828 50.5039C52.6615 49.9701 52.3555 49.5143 51.9648 49.1367C51.5742 48.7591 51.112 48.4727 50.5781 48.2773C50.0573 48.069 49.4909 47.9648 48.8789 47.9648H39.9922V64H34.9141V45.4062C34.9141 45.0547 34.9792 44.7292 35.1094 44.4297C35.2396 44.1172 35.4219 43.8503 35.6562 43.6289C35.8906 43.3945 36.1641 43.2122 36.4766 43.082C36.7891 42.9518 37.1211 42.8867 37.4727 42.8867H48.918C49.556 42.8867 50.2266 42.9583 50.9297 43.1016C51.6458 43.2448 52.349 43.4792 53.0391 43.8047C53.7422 44.1172 54.4062 44.5208 55.0312 45.0156C55.6693 45.4974 56.2292 46.0898 56.7109 46.793C57.2057 47.4831 57.5964 48.2839 57.8828 49.1953C58.1693 50.1068 58.3125 51.1354 58.3125 52.2812V64Z"/>
<path d="M106.258 64H69.1953C68.612 64 68.0703 63.8958 67.5703 63.6875C67.0703 63.4792 66.6328 63.1979 66.2578 62.8438C65.9036 62.4688 65.6224 62.0312 65.4141 61.5312C65.2057 61.0312 65.1016 60.4896 65.1016 59.9062V19.1875H73.2266V55.875H106.258V64ZM146.195 52.8125C146.195 53.9375 145.997 55.1562 145.602 56.4688C145.206 57.7604 144.56 58.9688 143.664 60.0938C142.789 61.1979 141.633 62.125 140.195 62.875C138.779 63.625 137.049 64 135.008 64H120.352C119.227 64 118.008 63.8021 116.695 63.4062C115.404 63.0104 114.195 62.375 113.07 61.5C111.966 60.6042 111.039 59.4479 110.289 58.0312C109.539 56.5938 109.164 54.8542 109.164 52.8125C109.164 51.6875 109.362 50.4688 109.758 49.1562C110.154 47.8438 110.789 46.6354 111.664 45.5312C112.56 44.4062 113.716 43.4688 115.133 42.7188C116.57 41.9688 118.31 41.5938 120.352 41.5938H135.008V49.3438H120.352C119.247 49.3438 118.393 49.6875 117.789 50.375C117.185 51.0417 116.883 51.875 116.883 52.875C116.883 53.9375 117.227 54.7708 117.914 55.375C118.622 55.9583 119.456 56.25 120.414 56.25H135.008C136.112 56.25 136.966 55.9167 137.57 55.25C138.174 54.5833 138.477 53.75 138.477 52.75V41.4062C138.477 40.3438 138.143 39.5 137.477 38.875C136.831 38.25 136.008 37.9375 135.008 37.9375H117.164V30.2188H135.008C136.133 30.2188 137.341 30.4167 138.633 30.8125C139.945 31.2083 141.154 31.8542 142.258 32.75C143.383 33.625 144.32 34.7812 145.07 36.2188C145.82 37.6354 146.195 39.3646 146.195 41.4062V52.8125ZM190.383 52.5938C190.383 53.3646 190.289 54.1771 190.102 55.0312C189.935 55.8854 189.664 56.7396 189.289 57.5938C188.914 58.4271 188.424 59.2292 187.82 60C187.237 60.7708 186.518 61.4583 185.664 62.0625C184.831 62.6458 183.862 63.1146 182.758 63.4688C181.654 63.8229 180.404 64 179.008 64H164.352C163.581 64 162.768 63.9167 161.914 63.75C161.06 63.5625 160.206 63.2812 159.352 62.9062C158.518 62.5312 157.716 62.0521 156.945 61.4688C156.174 60.8646 155.487 60.1458 154.883 59.3125C154.299 58.4583 153.831 57.4792 153.477 56.375C153.122 55.25 152.945 53.9896 152.945 52.5938V15.9375H161.07V52.5938C161.07 53.5938 161.383 54.3958 162.008 55C162.633 55.5833 163.414 55.875 164.352 55.875H179.008C180.029 55.875 180.82 55.5729 181.383 54.9688C181.966 54.3646 182.258 53.5729 182.258 52.5938V41.5938C182.258 40.5729 181.956 39.7812 181.352 39.2188C180.747 38.6354 179.966 38.3438 179.008 38.3438H164.352V30.2188H179.008C179.779 30.2188 180.591 30.3125 181.445 30.5C182.299 30.6667 183.143 30.9375 183.977 31.3125C184.831 31.6875 185.643 32.1771 186.414 32.7812C187.185 33.3646 187.862 34.0833 188.445 34.9375C189.029 35.7708 189.497 36.7396 189.852 37.8438C190.206 38.9479 190.383 40.1979 190.383 41.5938V52.5938Z"/>
</mask>
<path d="M30.0312 38.5508H24.9531V33.9609H30.0312V38.5508ZM30.0312 64H24.9531V42.8867H30.0312V64ZM58.3125 64H53.2344V52.2812C53.2344 51.6172 53.1172 51.0247 52.8828 50.5039C52.6615 49.9701 52.3555 49.5143 51.9648 49.1367C51.5742 48.7591 51.112 48.4727 50.5781 48.2773C50.0573 48.069 49.4909 47.9648 48.8789 47.9648H39.9922V64H34.9141V45.4062C34.9141 45.0547 34.9792 44.7292 35.1094 44.4297C35.2396 44.1172 35.4219 43.8503 35.6562 43.6289C35.8906 43.3945 36.1641 43.2122 36.4766 43.082C36.7891 42.9518 37.1211 42.8867 37.4727 42.8867H48.918C49.556 42.8867 50.2266 42.9583 50.9297 43.1016C51.6458 43.2448 52.349 43.4792 53.0391 43.8047C53.7422 44.1172 54.4062 44.5208 55.0312 45.0156C55.6693 45.4974 56.2292 46.0898 56.7109 46.793C57.2057 47.4831 57.5964 48.2839 57.8828 49.1953C58.1693 50.1068 58.3125 51.1354 58.3125 52.2812V64Z" fill="white"/>
<path d="M106.258 64H69.1953C68.612 64 68.0703 63.8958 67.5703 63.6875C67.0703 63.4792 66.6328 63.1979 66.2578 62.8438C65.9036 62.4688 65.6224 62.0312 65.4141 61.5312C65.2057 61.0312 65.1016 60.4896 65.1016 59.9062V19.1875H73.2266V55.875H106.258V64ZM146.195 52.8125C146.195 53.9375 145.997 55.1562 145.602 56.4688C145.206 57.7604 144.56 58.9688 143.664 60.0938C142.789 61.1979 141.633 62.125 140.195 62.875C138.779 63.625 137.049 64 135.008 64H120.352C119.227 64 118.008 63.8021 116.695 63.4062C115.404 63.0104 114.195 62.375 113.07 61.5C111.966 60.6042 111.039 59.4479 110.289 58.0312C109.539 56.5938 109.164 54.8542 109.164 52.8125C109.164 51.6875 109.362 50.4688 109.758 49.1562C110.154 47.8438 110.789 46.6354 111.664 45.5312C112.56 44.4062 113.716 43.4688 115.133 42.7188C116.57 41.9688 118.31 41.5938 120.352 41.5938H135.008V49.3438H120.352C119.247 49.3438 118.393 49.6875 117.789 50.375C117.185 51.0417 116.883 51.875 116.883 52.875C116.883 53.9375 117.227 54.7708 117.914 55.375C118.622 55.9583 119.456 56.25 120.414 56.25H135.008C136.112 56.25 136.966 55.9167 137.57 55.25C138.174 54.5833 138.477 53.75 138.477 52.75V41.4062C138.477 40.3438 138.143 39.5 137.477 38.875C136.831 38.25 136.008 37.9375 135.008 37.9375H117.164V30.2188H135.008C136.133 30.2188 137.341 30.4167 138.633 30.8125C139.945 31.2083 141.154 31.8542 142.258 32.75C143.383 33.625 144.32 34.7812 145.07 36.2188C145.82 37.6354 146.195 39.3646 146.195 41.4062V52.8125ZM190.383 52.5938C190.383 53.3646 190.289 54.1771 190.102 55.0312C189.935 55.8854 189.664 56.7396 189.289 57.5938C188.914 58.4271 188.424 59.2292 187.82 60C187.237 60.7708 186.518 61.4583 185.664 62.0625C184.831 62.6458 183.862 63.1146 182.758 63.4688C181.654 63.8229 180.404 64 179.008 64H164.352C163.581 64 162.768 63.9167 161.914 63.75C161.06 63.5625 160.206 63.2812 159.352 62.9062C158.518 62.5312 157.716 62.0521 156.945 61.4688C156.174 60.8646 155.487 60.1458 154.883 59.3125C154.299 58.4583 153.831 57.4792 153.477 56.375C153.122 55.25 152.945 53.9896 152.945 52.5938V15.9375H161.07V52.5938C161.07 53.5938 161.383 54.3958 162.008 55C162.633 55.5833 163.414 55.875 164.352 55.875H179.008C180.029 55.875 180.82 55.5729 181.383 54.9688C181.966 54.3646 182.258 53.5729 182.258 52.5938V41.5938C182.258 40.5729 181.956 39.7812 181.352 39.2188C180.747 38.6354 179.966 38.3438 179.008 38.3438H164.352V30.2188H179.008C179.779 30.2188 180.591 30.3125 181.445 30.5C182.299 30.6667 183.143 30.9375 183.977 31.3125C184.831 31.6875 185.643 32.1771 186.414 32.7812C187.185 33.3646 187.862 34.0833 188.445 34.9375C189.029 35.7708 189.497 36.7396 189.852 37.8438C190.206 38.9479 190.383 40.1979 190.383 41.5938V52.5938Z" fill="#38BDF8"/>
<path d="M30.0312 38.5508V39.5508H31.0312V38.5508H30.0312ZM24.9531 38.5508H23.9531V39.5508H24.9531V38.5508ZM24.9531 33.9609V32.9609H23.9531V33.9609H24.9531ZM30.0312 33.9609H31.0312V32.9609H30.0312V33.9609ZM30.0312 64V65H31.0312V64H30.0312ZM24.9531 64H23.9531V65H24.9531V64ZM24.9531 42.8867V41.8867H23.9531V42.8867H24.9531ZM30.0312 42.8867H31.0312V41.8867H30.0312V42.8867ZM30.0312 37.5508H24.9531V39.5508H30.0312V37.5508ZM25.9531 38.5508V33.9609H23.9531V38.5508H25.9531ZM24.9531 34.9609H30.0312V32.9609H24.9531V34.9609ZM29.0312 33.9609V38.5508H31.0312V33.9609H29.0312ZM30.0312 63H24.9531V65H30.0312V63ZM25.9531 64V42.8867H23.9531V64H25.9531ZM24.9531 43.8867H30.0312V41.8867H24.9531V43.8867ZM29.0312 42.8867V64H31.0312V42.8867H29.0312ZM58.3125 64V65H59.3125V64H58.3125ZM53.2344 64H52.2344V65H53.2344V64ZM52.8828 50.5039L51.9591 50.8869L51.9648 50.9007L51.9709 50.9143L52.8828 50.5039ZM50.5781 48.2773L50.2067 49.2058L50.2206 49.2114L50.2345 49.2165L50.5781 48.2773ZM39.9922 47.9648V46.9648H38.9922V47.9648H39.9922ZM39.9922 64V65H40.9922V64H39.9922ZM34.9141 64H33.9141V65H34.9141V64ZM35.1094 44.4297L36.0264 44.8284L36.0295 44.8214L36.0325 44.8143L35.1094 44.4297ZM35.6562 43.6289L36.3429 44.3559L36.3533 44.3461L36.3634 44.336L35.6562 43.6289ZM50.9297 43.1016L50.7301 44.0814L50.7336 44.0821L50.9297 43.1016ZM53.0391 43.8047L52.6124 44.7091L52.6226 44.7139L52.6329 44.7185L53.0391 43.8047ZM55.0312 45.0156L54.4105 45.7997L54.4195 45.8068L54.4286 45.8137L55.0312 45.0156ZM56.7109 46.793L55.886 47.3582L55.892 47.367L55.8982 47.3757L56.7109 46.793ZM58.3125 63H53.2344V65H58.3125V63ZM54.2344 64V52.2812H52.2344V64H54.2344ZM54.2344 52.2812C54.2344 51.4986 54.0959 50.7627 53.7947 50.0935L51.9709 50.9143C52.1385 51.2868 52.2344 51.7358 52.2344 52.2812H54.2344ZM53.8066 50.1209C53.5362 49.4688 53.1551 48.8965 52.6599 48.4177L51.2698 49.8557C51.5558 50.1322 51.7868 50.4713 51.9591 50.8869L53.8066 50.1209ZM52.6599 48.4177C52.1641 47.9385 51.5806 47.5793 50.9217 47.3382L50.2345 49.2165C50.6434 49.366 50.9843 49.5797 51.2698 49.8557L52.6599 48.4177ZM50.9495 47.3489C50.3002 47.0892 49.6065 46.9648 48.8789 46.9648V48.9648C49.3753 48.9648 49.8144 49.0489 50.2067 49.2058L50.9495 47.3489ZM48.8789 46.9648H39.9922V48.9648H48.8789V46.9648ZM38.9922 47.9648V64H40.9922V47.9648H38.9922ZM39.9922 63H34.9141V65H39.9922V63ZM35.9141 64V45.4062H33.9141V64H35.9141ZM35.9141 45.4062C35.9141 45.1812 35.955 44.9927 36.0264 44.8284L34.1923 44.031C34.0033 44.4657 33.9141 44.9281 33.9141 45.4062H35.9141ZM36.0325 44.8143C36.1115 44.6246 36.2155 44.4762 36.3429 44.3559L34.9696 42.9019C34.6282 43.2243 34.3677 43.6097 34.1863 44.0451L36.0325 44.8143ZM36.3634 44.336C36.5034 44.196 36.6666 44.0862 36.8612 44.0051L36.0919 42.159C35.6615 42.3383 35.2779 42.5931 34.9491 42.9218L36.3634 44.336ZM36.8612 44.0051C37.0471 43.9276 37.2479 43.8867 37.4727 43.8867V41.8867C36.9942 41.8867 36.531 41.976 36.0919 42.159L36.8612 44.0051ZM37.4727 43.8867H48.918V41.8867H37.4727V43.8867ZM48.918 43.8867C49.4813 43.8867 50.0847 43.95 50.7301 44.0814L51.1293 42.1217C50.3685 41.9667 49.6307 41.8867 48.918 41.8867V43.8867ZM50.7336 44.0821C51.3666 44.2087 51.9925 44.4167 52.6124 44.7091L53.4657 42.9003C52.7054 42.5416 51.9251 42.2808 51.1258 42.121L50.7336 44.0821ZM52.6329 44.7185C53.2566 44.9957 53.849 45.3551 54.4105 45.7997L55.652 44.2316C54.9635 43.6866 54.2277 43.2387 53.4452 42.8909L52.6329 44.7185ZM54.4286 45.8137C54.9749 46.2262 55.4612 46.7383 55.886 47.3582L57.5359 46.2277C56.9971 45.4414 56.3636 44.7686 55.6339 44.2176L54.4286 45.8137ZM55.8982 47.3757C56.324 47.9695 56.6702 48.6724 56.9288 49.4951L58.8368 48.8955C58.5225 47.8953 58.0874 46.9966 57.5236 46.2103L55.8982 47.3757ZM56.9288 49.4951C57.1794 50.2925 57.3125 51.2175 57.3125 52.2812H59.3125C59.3125 51.0533 59.1591 49.921 58.8368 48.8955L56.9288 49.4951ZM57.3125 52.2812V64H59.3125V52.2812H57.3125ZM106.258 64V65H107.258V64H106.258ZM67.5703 63.6875L67.1857 64.6106L67.5703 63.6875ZM66.2578 62.8438L65.5308 63.5304L65.5504 63.5511L65.5712 63.5708L66.2578 62.8438ZM65.1016 19.1875V18.1875H64.1016V19.1875H65.1016ZM73.2266 19.1875H74.2266V18.1875H73.2266V19.1875ZM73.2266 55.875H72.2266V56.875H73.2266V55.875ZM106.258 55.875H107.258V54.875H106.258V55.875ZM106.258 63H69.1953V65H106.258V63ZM69.1953 63C68.7337 63 68.3239 62.9182 67.9549 62.7644L67.1857 64.6106C67.8167 64.8735 68.4902 65 69.1953 65V63ZM67.9549 62.7644C67.561 62.6003 67.2271 62.3837 66.9444 62.1167L65.5712 63.5708C66.0385 64.0121 66.5797 64.3581 67.1857 64.6106L67.9549 62.7644ZM66.9848 62.1571C66.7179 61.8745 66.5013 61.5406 66.3371 61.1466L64.491 61.9159C64.7435 62.5219 65.0894 63.063 65.5308 63.5304L66.9848 62.1571ZM66.3371 61.1466C66.1834 60.7776 66.1016 60.3678 66.1016 59.9062H64.1016C64.1016 60.6114 64.2281 61.2849 64.491 61.9159L66.3371 61.1466ZM66.1016 59.9062V19.1875H64.1016V59.9062H66.1016ZM65.1016 20.1875H73.2266V18.1875H65.1016V20.1875ZM72.2266 19.1875V55.875H74.2266V19.1875H72.2266ZM73.2266 56.875H106.258V54.875H73.2266V56.875ZM105.258 55.875V64H107.258V55.875H105.258ZM145.602 56.4688L146.558 56.7618L146.559 56.7575L145.602 56.4688ZM143.664 60.0938L142.882 59.4708L142.88 59.4727L143.664 60.0938ZM140.195 62.875L139.733 61.9884L139.727 61.9912L140.195 62.875ZM116.695 63.4062L116.402 64.3624L116.407 64.3637L116.695 63.4062ZM113.07 61.5L112.44 62.2766L112.448 62.283L112.456 62.2894L113.07 61.5ZM110.289 58.0312L109.402 58.4938L109.405 58.4991L110.289 58.0312ZM109.758 49.1562L108.8 48.8675L109.758 49.1562ZM111.664 45.5312L110.882 44.9083L110.88 44.9102L111.664 45.5312ZM115.133 42.7188L114.67 41.8321L114.665 41.835L115.133 42.7188ZM135.008 41.5938H136.008V40.5938H135.008V41.5938ZM135.008 49.3438V50.3438H136.008V49.3438H135.008ZM117.789 50.375L118.53 51.0465L118.535 51.0409L118.54 51.0351L117.789 50.375ZM117.914 55.375L117.254 56.1262L117.266 56.1367L117.278 56.1469L117.914 55.375ZM137.477 38.875L136.781 39.5936L136.787 39.5991L136.793 39.6045L137.477 38.875ZM117.164 37.9375H116.164V38.9375H117.164V37.9375ZM117.164 30.2188V29.2188H116.164V30.2188H117.164ZM138.633 30.8125L138.34 31.7686L138.344 31.7699L138.633 30.8125ZM142.258 32.75L141.628 33.5266L141.636 33.533L141.644 33.5394L142.258 32.75ZM145.07 36.2188L144.184 36.6813L144.187 36.6866L145.07 36.2188ZM145.195 52.8125C145.195 53.8211 145.018 54.9415 144.644 56.18L146.559 56.7575C146.977 55.371 147.195 54.0539 147.195 52.8125H145.195ZM144.645 56.1757C144.289 57.3399 143.705 58.4375 142.882 59.4708L144.446 60.7167C145.415 59.5 146.123 58.1809 146.558 56.7618L144.645 56.1757ZM142.88 59.4727C142.105 60.4514 141.064 61.2936 139.733 61.9884L140.658 63.7616C142.201 62.9564 143.473 61.9445 144.448 60.7148L142.88 59.4727ZM139.727 61.9912C138.489 62.6468 136.93 63 135.008 63V65C137.169 65 139.068 64.6032 140.663 63.7588L139.727 61.9912ZM135.008 63H120.352V65H135.008V63ZM120.352 63C119.343 63 118.223 62.8224 116.984 62.4488L116.407 64.3637C117.793 64.7818 119.11 65 120.352 65V63ZM116.988 62.4501C115.819 62.0919 114.719 61.5152 113.684 60.7106L112.456 62.2894C113.672 63.2348 114.988 63.929 116.402 64.3624L116.988 62.4501ZM113.7 60.7234C112.713 59.9225 111.868 58.8762 111.173 57.5634L109.405 58.4991C110.21 60.0196 111.219 61.2858 112.44 62.2766L113.7 60.7234ZM111.176 57.5687C110.517 56.3063 110.164 54.7339 110.164 52.8125H108.164C108.164 54.9744 108.561 56.8812 109.402 58.4938L111.176 57.5687ZM110.164 52.8125C110.164 51.8039 110.342 50.6835 110.715 49.445L108.8 48.8675C108.382 50.254 108.164 51.5711 108.164 52.8125H110.164ZM110.715 49.445C111.074 48.2566 111.649 47.1605 112.448 46.1523L110.88 44.9102C109.929 46.1104 109.234 47.4309 108.8 48.8675L110.715 49.445ZM112.446 46.1542C113.247 45.1486 114.292 44.2955 115.601 43.6025L114.665 41.835C113.141 42.642 111.873 43.6639 110.882 44.9083L112.446 46.1542ZM115.595 43.6053C116.858 42.9467 118.43 42.5938 120.352 42.5938V40.5938C118.19 40.5938 116.283 40.9908 114.67 41.8322L115.595 43.6053ZM120.352 42.5938H135.008V40.5938H120.352V42.5938ZM134.008 41.5938V49.3438H136.008V41.5938H134.008ZM135.008 48.3438H120.352V50.3438H135.008V48.3438ZM120.352 48.3438C119.025 48.3438 117.871 48.767 117.038 49.7149L118.54 51.0351C118.916 50.608 119.47 50.3438 120.352 50.3438V48.3438ZM117.048 49.7035C116.258 50.5751 115.883 51.6566 115.883 52.875H117.883C117.883 52.0934 118.112 51.5083 118.53 51.0465L117.048 49.7035ZM115.883 52.875C115.883 54.174 116.315 55.3008 117.254 56.1262L118.574 54.6238C118.138 54.2408 117.883 53.701 117.883 52.875H115.883ZM117.278 56.1469C118.174 56.8846 119.235 57.25 120.414 57.25V55.25C119.677 55.25 119.071 55.032 118.55 54.6031L117.278 56.1469ZM120.414 57.25H135.008V55.25H120.414V57.25ZM135.008 57.25C136.325 57.25 137.476 56.8437 138.311 55.9215L136.829 54.5785C136.457 54.9896 135.899 55.25 135.008 55.25V57.25ZM138.311 55.9215C139.101 55.0499 139.477 53.9684 139.477 52.75H137.477C137.477 53.5316 137.248 54.1167 136.829 54.5785L138.311 55.9215ZM139.477 52.75V41.4062H137.477V52.75H139.477ZM139.477 41.4062C139.477 40.1165 139.062 38.9907 138.161 38.1455L136.793 39.6045C137.224 40.0093 137.477 40.571 137.477 41.4062H139.477ZM138.172 38.1564C137.318 37.3299 136.235 36.9375 135.008 36.9375V38.9375C135.78 38.9375 136.344 39.1701 136.781 39.5936L138.172 38.1564ZM135.008 36.9375H117.164V38.9375H135.008V36.9375ZM118.164 37.9375V30.2188H116.164V37.9375H118.164ZM117.164 31.2188H135.008V29.2188H117.164V31.2188ZM135.008 31.2188C136.016 31.2188 137.125 31.3962 138.34 31.7686L138.926 29.8564C137.558 29.4371 136.25 29.2188 135.008 29.2188V31.2188ZM138.344 31.7699C139.528 32.1268 140.621 32.7095 141.628 33.5266L142.888 31.9734C141.687 30.9988 140.363 30.2899 138.922 29.8551L138.344 31.7699ZM141.644 33.5394C142.641 34.3149 143.491 35.3535 144.184 36.6813L145.957 35.7562C145.15 34.209 144.125 32.9351 142.872 31.9606L141.644 33.5394ZM144.187 36.6866C144.842 37.9251 145.195 39.4842 145.195 41.4062H147.195C147.195 39.245 146.798 37.3458 145.954 35.7509L144.187 36.6866ZM145.195 41.4062V52.8125H147.195V41.4062H145.195ZM190.102 55.0312L189.125 54.8168L189.122 54.8283L189.12 54.8397L190.102 55.0312ZM189.289 57.5938L190.201 58.0041L190.205 57.9957L189.289 57.5938ZM187.82 60L187.033 59.3831L187.028 59.3898L187.023 59.3966L187.82 60ZM185.664 62.0625L186.238 62.8817L186.242 62.8789L185.664 62.0625ZM161.914 63.75L161.7 64.7267L161.711 64.7293L161.723 64.7315L161.914 63.75ZM159.352 62.9062L158.941 63.8182L158.95 63.8219L159.352 62.9062ZM156.945 61.4688L156.328 62.2558L156.335 62.261L156.342 62.2662L156.945 61.4688ZM154.883 59.3125L154.057 59.8765L154.065 59.8881L154.073 59.8995L154.883 59.3125ZM153.477 56.375L152.523 56.6753L152.524 56.6804L153.477 56.375ZM152.945 15.9375V14.9375H151.945V15.9375H152.945ZM161.07 15.9375H162.07V14.9375H161.07V15.9375ZM162.008 55L161.313 55.719L161.319 55.7251L161.325 55.7311L162.008 55ZM181.383 54.9688L180.663 54.2742L180.657 54.2807L180.651 54.2873L181.383 54.9688ZM181.352 39.2188L180.657 39.9382L180.663 39.9445L180.67 39.9506L181.352 39.2188ZM164.352 38.3438H163.352V39.3438H164.352V38.3438ZM164.352 30.2188V29.2188H163.352V30.2188H164.352ZM181.445 30.5L181.231 31.4767L181.242 31.4793L181.254 31.4815L181.445 30.5ZM183.977 31.3125L183.566 32.2245L183.575 32.2281L183.977 31.3125ZM186.414 32.7812L185.797 33.5683L185.804 33.5735L185.811 33.5787L186.414 32.7812ZM188.445 34.9375L187.619 35.5015L187.626 35.511L188.445 34.9375ZM189.383 52.5938C189.383 53.2836 189.299 54.0239 189.125 54.8168L191.078 55.2457C191.279 54.3303 191.383 53.4456 191.383 52.5938H189.383ZM189.12 54.8397C188.968 55.6166 188.721 56.4003 188.373 57.1918L190.205 57.9957C190.607 57.0789 190.901 56.1543 191.083 55.2228L189.12 54.8397ZM188.377 57.1834C188.038 57.938 187.591 58.6713 187.033 59.3831L188.607 60.6169C189.258 59.787 189.791 58.9161 190.201 58.0041L188.377 57.1834ZM187.023 59.3966C186.506 60.0791 185.864 60.6963 185.087 61.2461L186.242 62.8789C187.173 62.2203 187.968 61.4626 188.618 60.6034L187.023 59.3966ZM185.091 61.2433C184.35 61.7617 183.474 62.1888 182.452 62.5165L183.063 64.421C184.25 64.0404 185.311 63.53 186.238 62.8817L185.091 61.2433ZM182.452 62.5165C181.465 62.8334 180.32 63 179.008 63V65C180.487 65 181.843 64.8125 183.063 64.421L182.452 62.5165ZM179.008 63H164.352V65H179.008V63ZM164.352 63C163.653 63 162.905 62.9244 162.106 62.7685L161.723 64.7315C162.632 64.9089 163.509 65 164.352 65V63ZM162.128 62.7733C161.343 62.6008 160.551 62.3409 159.754 61.9906L158.95 63.8219C159.86 64.2216 160.777 64.5242 161.7 64.7267L162.128 62.7733ZM159.762 61.9943C159.001 61.6519 158.263 61.212 157.549 60.6713L156.342 62.2662C157.169 62.8922 158.036 63.4106 158.941 63.8182L159.762 61.9943ZM157.562 60.6817C156.868 60.1378 156.245 59.4874 155.692 58.7255L154.073 59.8995C154.729 60.8043 155.481 61.5914 156.328 62.2558L157.562 60.6817ZM155.709 58.7485C155.186 57.983 154.757 57.0929 154.429 56.0696L152.524 56.6804C152.904 57.8655 153.413 58.9337 154.057 59.8765L155.709 58.7485ZM154.43 56.0747C154.112 55.0628 153.945 53.9059 153.945 52.5938H151.945C151.945 54.0733 152.133 55.4372 152.523 56.6753L154.43 56.0747ZM153.945 52.5938V15.9375H151.945V52.5938H153.945ZM152.945 16.9375H161.07V14.9375H152.945V16.9375ZM160.07 15.9375V52.5938H162.07V15.9375H160.07ZM160.07 52.5938C160.07 53.8204 160.463 54.8976 161.313 55.719L162.703 54.281C162.303 53.8941 162.07 53.3671 162.07 52.5938H160.07ZM161.325 55.7311C162.154 56.5046 163.187 56.875 164.352 56.875V54.875C163.641 54.875 163.111 54.6621 162.69 54.2689L161.325 55.7311ZM164.352 56.875H179.008V54.875H164.352V56.875ZM179.008 56.875C180.236 56.875 181.32 56.5039 182.115 55.6502L180.651 54.2873C180.321 54.6419 179.821 54.875 179.008 54.875V56.875ZM182.102 55.6633C182.895 54.842 183.258 53.7859 183.258 52.5938H181.258C181.258 53.36 181.037 53.8872 180.663 54.2742L182.102 55.6633ZM183.258 52.5938V41.5938H181.258V52.5938H183.258ZM183.258 41.5938C183.258 40.3657 182.887 39.2817 182.033 38.4869L180.67 39.9506C181.025 40.2808 181.258 40.7801 181.258 41.5938H183.258ZM182.046 38.4993C181.229 37.7103 180.186 37.3438 179.008 37.3438V39.3438C179.747 39.3438 180.266 39.5605 180.657 39.9382L182.046 38.4993ZM179.008 37.3438H164.352V39.3438H179.008V37.3438ZM165.352 38.3438V30.2188H163.352V38.3438H165.352ZM164.352 31.2188H179.008V29.2188H164.352V31.2188ZM179.008 31.2188C179.698 31.2188 180.438 31.3027 181.231 31.4767L181.66 29.5233C180.744 29.3223 179.86 29.2188 179.008 29.2188V31.2188ZM181.254 31.4815C182.029 31.6327 182.799 31.8794 183.566 32.2244L184.387 30.4006C183.487 29.9956 182.57 29.7006 181.637 29.5185L181.254 31.4815ZM183.575 32.2281C184.348 32.5678 185.089 33.0133 185.797 33.5683L187.031 31.9942C186.197 31.3409 185.313 30.8072 184.379 30.3969L183.575 32.2281ZM185.811 33.5787C186.489 34.0923 187.093 34.7304 187.62 35.5015L189.271 34.3735C188.631 33.4363 187.88 32.6369 187.018 31.9838L185.811 33.5787ZM187.626 35.511C188.144 36.2516 188.572 37.1274 188.899 38.1492L190.804 37.5383C190.423 36.3518 189.913 35.2901 189.265 34.364L187.626 35.511ZM188.899 38.1492C189.216 39.1369 189.383 40.2812 189.383 41.5938H191.383C191.383 40.1147 191.195 38.7589 190.804 37.5383L188.899 38.1492ZM189.383 41.5938V52.5938H191.383V41.5938H189.383Z" fill="black" mask="url(#path-2-outside-1_0_5)"/>
<path d="M0 120V82.24H1.92V120H0ZM3.84 120V82.24H9.6V120H3.84ZM11.52 120V82.24H13.44V120H11.52ZM15.36 120V82.24H21.12V120H15.36ZM26.88 120V82.24H28.8V120H26.88ZM15.296 140.672C13.376 140.672 11.8187 140.032 10.624 138.752L11.52 137.28L11.584 137.088L11.776 137.152C11.776 137.195 11.7973 137.28 11.84 137.408C11.84 137.493 11.8827 137.6 11.968 137.728C12.0107 137.813 12.096 137.899 12.224 137.984C13.12 138.752 14.2293 139.136 15.552 139.136C16.4053 139.136 17.1307 138.901 17.728 138.432C18.3253 137.92 18.624 137.323 18.624 136.64C18.624 136.171 18.5173 135.765 18.304 135.424C18.1333 135.125 17.8133 134.827 17.344 134.528C16.8747 134.229 16.1493 133.867 15.168 133.44C13.7173 132.885 12.672 132.245 12.032 131.52C11.4347 130.795 11.136 129.984 11.136 129.088C11.136 127.979 11.5413 127.083 12.352 126.4C13.1627 125.717 14.2507 125.376 15.616 125.376C16.4267 125.376 17.1947 125.547 17.92 125.888C18.6027 126.229 19.2213 126.677 19.776 127.232L18.688 128.704L18.56 128.576C18.56 128.533 18.5387 128.469 18.496 128.384C18.496 128.256 18.4533 128.149 18.368 128.064C18.3253 127.936 18.24 127.829 18.112 127.744C17.7707 127.403 17.3653 127.147 16.896 126.976C16.4693 126.848 15.9573 126.784 15.36 126.784C14.592 126.784 13.9947 126.997 13.568 127.424C13.0987 127.851 12.864 128.363 12.864 128.96C12.864 129.429 12.9493 129.835 13.12 130.176C13.3333 130.517 13.696 130.837 14.208 131.136C14.72 131.477 15.488 131.84 16.512 132.224C17.92 132.821 18.9013 133.419 19.456 134.016C19.968 134.656 20.224 135.445 20.224 136.384C20.224 137.109 20.0533 137.792 19.712 138.432C19.328 139.072 18.7733 139.605 18.048 140.032C17.28 140.459 16.3627 140.672 15.296 140.672ZM30.75 120V82.24H32.67V120H30.75ZM34.59 120V82.24H36.51V120H34.59ZM38.43 120V82.24H44.19V120H38.43ZM46.11 120V82.24H51.87V120H46.11ZM57.63 120V82.24H59.55V120H57.63ZM45.086 127.04H40.926V125.568H51.166V127.04H46.814V140.416H45.086V127.04ZM61.5 120V82.24H67.26V120H61.5ZM73.02 120V82.24H74.94V120H73.02ZM76.86 120V82.24H78.78V120H76.86ZM80.7 120V82.24H82.62V120H80.7ZM84.54 120V82.24H90.3V120H84.54ZM76.86 140.672C75.324 140.672 74.1507 140.203 73.34 139.264C72.5293 138.325 72.124 137.003 72.124 135.296V125.568H73.98V125.76C73.852 125.845 73.788 125.952 73.788 126.08C73.7453 126.165 73.724 126.357 73.724 126.656V135.296C73.724 136.576 73.98 137.557 74.492 138.24C74.9613 138.923 75.772 139.264 76.924 139.264C78.0333 139.264 78.844 138.923 79.356 138.24C79.868 137.557 80.124 136.555 80.124 135.232V125.568H81.724V135.232C81.724 137.067 81.2973 138.432 80.444 139.328C79.5907 140.224 78.396 140.672 76.86 140.672ZM92.25 120V82.24H94.17V120H92.25ZM96.09 120V82.24H98.01V120H96.09ZM99.93 120V82.24H105.69V120H99.93ZM111.45 120V82.24H113.37V120H111.45ZM115.29 120V82.24H121.05V120H115.29ZM102.938 125.568H106.394C107.631 125.568 108.591 125.739 109.274 126.08C109.999 126.421 110.618 126.933 111.13 127.616C112.111 128.896 112.602 130.709 112.602 133.056C112.517 135.488 111.962 137.323 110.938 138.56C109.914 139.84 108.314 140.459 106.138 140.416H102.938V125.568ZM106.01 139.136C109.295 139.136 110.938 137.152 110.938 133.184C110.938 131.179 110.575 129.643 109.85 128.576C109.082 127.509 107.887 126.976 106.266 126.976H104.538V139.136H106.01ZM123 120V82.24H124.92V120H123ZM126.84 120V82.24H132.6V120H126.84ZM134.52 120V82.24H136.44V120H134.52ZM142.2 120V82.24H147.96V120H142.2ZM149.88 120V82.24H151.8V120H149.88ZM134.328 139.008H137.272V126.976H134.52V125.568H141.88V126.976H138.936V139.008H142.008V140.416H134.328V139.008ZM153.75 120V82.24H159.51V120H153.75ZM161.43 120V82.24H163.35V120H161.43ZM165.27 120V82.24H171.03V120H165.27ZM172.95 120V82.24H174.87V120H172.95ZM180.63 120V82.24H182.55V120H180.63ZM169.11 140.672C167.403 140.672 166.102 140.011 165.206 138.688C164.267 137.365 163.798 135.488 163.798 133.056C163.798 130.709 164.267 128.853 165.206 127.488C166.145 126.165 167.446 125.504 169.11 125.504C170.774 125.504 172.075 126.165 173.014 127.488C173.953 128.853 174.422 130.709 174.422 133.056C174.422 135.488 173.953 137.365 173.014 138.688C172.118 140.011 170.817 140.672 169.11 140.672ZM169.11 139.2C170.262 139.2 171.137 138.688 171.734 137.664C172.374 136.597 172.694 135.061 172.694 133.056C172.694 131.179 172.374 129.685 171.734 128.576C171.094 127.509 170.219 126.976 169.11 126.976C168.001 126.976 167.126 127.509 166.486 128.576C165.846 129.685 165.526 131.179 165.526 133.056C165.526 135.061 165.825 136.597 166.422 137.664C167.062 138.688 167.958 139.2 169.11 139.2ZM184.5 120V82.24H186.42V120H184.5ZM188.34 120V82.24H194.1V120H188.34ZM196.02 120V82.24H197.94V120H196.02ZM199.86 120V82.24H205.62V120H199.86ZM211.38 120V82.24H213.3V120H211.38ZM199.796 140.672C197.876 140.672 196.319 140.032 195.124 138.752L196.02 137.28L196.084 137.088L196.276 137.152C196.276 137.195 196.297 137.28 196.34 137.408C196.34 137.493 196.383 137.6 196.468 137.728C196.511 137.813 196.596 137.899 196.724 137.984C197.62 138.752 198.729 139.136 200.052 139.136C200.905 139.136 201.631 138.901 202.228 138.432C202.825 137.92 203.124 137.323 203.124 136.64C203.124 136.171 203.017 135.765 202.804 135.424C202.633 135.125 202.313 134.827 201.844 134.528C201.375 134.229 200.649 133.867 199.668 133.44C198.217 132.885 197.172 132.245 196.532 131.52C195.935 130.795 195.636 129.984 195.636 129.088C195.636 127.979 196.041 127.083 196.852 126.4C197.663 125.717 198.751 125.376 200.116 125.376C200.927 125.376 201.695 125.547 202.42 125.888C203.103 126.229 203.721 126.677 204.276 127.232L203.188 128.704L203.06 128.576C203.06 128.533 203.039 128.469 202.996 128.384C202.996 128.256 202.953 128.149 202.868 128.064C202.825 127.936 202.74 127.829 202.612 127.744C202.271 127.403 201.865 127.147 201.396 126.976C200.969 126.848 200.457 126.784 199.86 126.784C199.092 126.784 198.495 126.997 198.068 127.424C197.599 127.851 197.364 128.363 197.364 128.96C197.364 129.429 197.449 129.835 197.62 130.176C197.833 130.517 198.196 130.837 198.708 131.136C199.22 131.477 199.988 131.84 201.012 132.224C202.42 132.821 203.401 133.419 203.956 134.016C204.468 134.656 204.724 135.445 204.724 136.384C204.724 137.109 204.553 137.792 204.212 138.432C203.828 139.072 203.273 139.605 202.548 140.032C201.78 140.459 200.863 140.672 199.796 140.672Z" fill="white"/>
</svg>
